<?xml version="1.0" encoding="UTF-8"?>
<svg version="1.1" xmlns="http://www.w3.org/2000/svg" width="533" height="533">
<path d="M0 0 C1.3502731 -0.00258644 2.70054543 -0.00560038 4.05081671 -0.0090034 C7.75137188 -0.01704441 11.45190761 -0.01886136 15.15247047 -0.01960087 C19.14796265 -0.02145658 23.14344488 -0.02900668 27.13893127 -0.03573608 C35.8729165 -0.04930105 44.60689712 -0.05534175 53.34089112 -0.05974674 C58.80071436 -0.06251324 64.26053584 -0.06675143 69.72035789 -0.07125092 C84.85368774 -0.08344301 99.98701618 -0.09374126 115.12035084 -0.09712601 C116.08842097 -0.09734557 117.05649111 -0.09756514 118.05389671 -0.09779136 C119.50938109 -0.09811878 119.50938109 -0.09811878 120.99426919 -0.09845281 C122.96034674 -0.09889626 124.92642429 -0.09934283 126.89250183 -0.09979248 C127.86773399 -0.10001391 128.84296615 -0.10023534 129.84775081 -0.10046348 C145.62965787 -0.10440663 161.41151862 -0.12184614 177.19340781 -0.145152 C193.41843622 -0.1689176 209.64344145 -0.18133029 225.86848754 -0.18249393 C234.9692132 -0.18340796 244.06987857 -0.18909116 253.17058754 -0.20731354 C260.92463357 -0.22278523 268.67860069 -0.22779373 276.43265925 -0.21957543 C280.38224201 -0.21569329 284.33166621 -0.21647772 288.28122902 -0.23063278 C320.95682211 -0.34087858 352.4954477 3.19956926 377.78923035 26.14044189 C378.60262878 26.82493408 379.41602722 27.50942627 380.2540741 28.21466064 C401.73484213 46.65038914 415.41878478 73.91170874 417.78923035 102.14044189 C417.9349106 106.57158793 417.93276846 111.00025558 417.92967224 115.4335022 C417.93225952 116.78051355 417.93527368 118.12752414 417.93867564 119.47453368 C417.94670666 123.16142793 417.94853303 126.84830268 417.94927311 130.53520465 C417.95113055 134.51772754 417.95868144 138.50024048 417.96540833 142.48275757 C417.97896559 151.18569283 417.98501262 159.88862346 417.98941898 168.59156752 C417.99218646 174.03246756 417.99642479 179.47336583 418.00092316 184.91426468 C418.01311364 199.99702276 418.0234126 215.07977944 418.02679825 230.16254234 C418.02701781 231.12710975 418.02723738 232.09167715 418.0274636 233.08547387 C418.02768188 234.05227374 418.02790016 235.01907362 418.02812505 236.01517045 C418.0285685 237.97408255 418.02901507 239.93299464 418.02946472 241.89190674 C418.02968615 242.86358278 418.02990758 243.83525883 418.03013572 244.8363796 C418.03407949 260.56325768 418.05152164 276.29008931 418.07482424 292.01694946 C418.09858993 308.18776894 418.11100251 324.35856516 418.11216617 340.52940238 C418.11308013 349.59881409 418.11876164 358.66816531 418.13698578 367.73756027 C418.15245752 375.46413379 418.1574659 383.19062812 418.14924768 390.9172142 C418.14536571 394.85262726 418.14614909 398.7878812 418.16030502 402.72327423 C418.27084284 435.36590801 414.70404273 466.87539235 391.78923035 492.14044189 C391.10473816 492.95384033 390.42024597 493.76723877 389.7150116 494.60528564 C371.28071425 516.08438614 344.0170321 529.77269709 315.78923035 532.14044189 C311.34319121 532.28621776 306.89961216 532.283979 302.45147705 532.28088379 C301.09962821 532.28347104 299.74778013 532.2864852 298.39593309 532.28988719 C294.69570666 532.29791843 290.99549967 532.29974459 287.29526556 532.30048466 C283.29844674 532.30234204 279.30163786 532.30989286 275.30482483 532.31661987 C266.57096596 532.33017694 257.8371117 532.33622404 249.10324407 532.34063053 C243.64359074 532.34339784 238.18393917 532.34763612 232.72428703 532.3521347 C217.59091459 532.36432478 202.45754355 532.37462406 187.3241663 532.3780098 C185.87248643 532.37833915 185.87248643 532.37833915 184.3914797 532.37867515 C182.93643428 532.37900256 182.93643428 532.37900256 181.451994 532.3793366 C179.48652526 532.37978005 177.52105651 532.38022662 175.55558777 532.38067627 C174.5806588 532.3808977 173.60572983 532.38111913 172.60125756 532.38134727 C156.81873852 532.38529176 141.03626575 532.4027363 125.25376458 532.42603579 C109.02757933 532.44979573 92.80141724 532.46221378 76.57521433 532.46337771 C67.47397651 532.46429196 58.37279897 532.4699807 49.27157784 532.48819733 C41.51862538 532.50366121 33.76575183 532.50868197 26.01278687 532.50045922 C22.06332107 532.49657463 18.11401384 532.49737389 14.16456795 532.51151657 C-18.14998967 532.62045947 -49.21414756 528.81179681 -74.21076965 506.14044189 C-75.02416809 505.45594971 -75.83756653 504.77145752 -76.6756134 504.06622314 C-98.15638144 485.63049464 -111.84032408 458.36917505 -114.21076965 430.14044189 C-114.3564499 425.70929586 -114.35430777 421.28062821 -114.35121155 416.84738159 C-114.35379883 415.50037024 -114.35681299 414.15335965 -114.36021495 412.80635011 C-114.36824596 409.11945585 -114.37007234 405.43258111 -114.37081242 401.74567914 C-114.37266985 397.76315624 -114.38022075 393.78064331 -114.38694763 389.79812622 C-114.4005049 381.09519096 -114.40655193 372.39226033 -114.41095829 363.68931627 C-114.41372577 358.24841623 -114.4179641 352.80751796 -114.42246246 347.36661911 C-114.43465294 332.28386103 -114.4449519 317.20110435 -114.44833755 302.11834145 C-114.44855712 301.15377404 -114.44877669 300.18920664 -114.44900291 299.19540992 C-114.44922118 298.22861004 -114.44943946 297.26181017 -114.44966435 296.26571333 C-114.45010781 294.30680124 -114.45055437 292.34788914 -114.45100403 290.38897705 C-114.45133617 288.93146298 -114.45133617 288.93146298 -114.45167503 287.44450419 C-114.4556188 271.71762611 -114.47306094 255.99079448 -114.49636355 240.26393433 C-114.52012924 224.09311485 -114.53254182 207.92231863 -114.53370547 191.75148141 C-114.53461944 182.6820697 -114.54030095 173.61271848 -114.55852509 164.54332352 C-114.57399682 156.81675 -114.5790052 149.09025567 -114.57078698 141.36366959 C-114.56690502 137.42825653 -114.56768839 133.49300259 -114.58184433 129.55760956 C-114.69238215 96.91497578 -111.12558203 65.40549144 -88.21076965 40.14044189 C-87.52627747 39.32704346 -86.84178528 38.51364502 -86.1365509 37.67559814 C-64.34773565 12.28791215 -32.94934934 -0.02288664 0 0 Z " fill="#242424" transform="translate(114.21076965332031,-0.14044189453125)"/>
<path d="M0 0 C0.86825912 0.00222061 1.73651825 0.00444122 2.63108826 0.00672913 C3.61202957 0.00680466 4.59297089 0.00688019 5.6036377 0.00695801 C6.6702916 0.01211929 7.7369455 0.01728058 8.83592224 0.02259827 C9.92211349 0.02401321 11.00830475 0.02542816 12.12741089 0.02688599 C15.61230674 0.03250403 19.09713941 0.04505959 22.58201599 0.05775452 C24.93813486 0.06276719 27.29425473 0.0673305 29.65037537 0.07142639 C35.44011063 0.08247933 41.2298088 0.09923501 47.01951599 0.12025452 C49.94163782 10.44855593 52.2102843 20.74502858 54.08201599 31.30775452 C55.58278478 39.71904008 57.18134854 48.04039768 59.32981873 56.31678772 C60.670341 61.76571421 61.5403537 67.30213053 62.48045349 72.83119202 C63.30440834 77.54529434 64.25154838 82.17634684 65.44529724 86.81166077 C67.1589666 93.4905496 68.50771224 100.22734713 69.80931091 106.99549866 C70.21141912 109.08058648 70.62207191 111.16387933 71.03318787 113.24720764 C71.29346621 114.58890516 71.55325026 115.93069867 71.81248474 117.27259827 C72.04475769 118.4687677 72.27703064 119.66493713 72.51634216 120.89735413 C72.95596701 123.71321419 73.12294237 126.27954357 73.01951599 129.12025452 C75.65951599 129.12025452 78.29951599 129.12025452 81.01951599 129.12025452 C81.01951599 86.55025452 81.01951599 43.98025452 81.01951599 0.12025452 C98.50951599 0.12025452 115.99951599 0.12025452 134.01951599 0.12025452 C134.01951599 100.11025452 134.01951599 200.10025452 134.01951599 303.12025452 C118.17951599 303.12025452 102.33951599 303.12025452 86.01951599 303.12025452 C81.52822703 286.27792089 81.52822703 286.27792089 80.19529724 279.71400452 C79.89068159 278.23417202 79.58599084 276.75435497 79.28123474 275.27455139 C79.12703064 274.51779114 78.97282654 273.76103088 78.81394958 272.9813385 C75.92159406 258.81114078 72.81796327 244.70110179 69.51951599 230.62025452 C65.48934565 213.40245668 61.78037062 196.12704929 58.20875549 178.80867004 C57.44767167 175.12818678 56.64765011 171.4606481 55.79685974 167.79994202 C55.01951599 164.12025452 55.01951599 164.12025452 55.01951599 160.12025452 C52.37951599 160.12025452 49.73951599 160.12025452 47.01951599 160.12025452 C47.01951599 207.31025452 47.01951599 254.50025452 47.01951599 303.12025452 C30.84951599 303.12025452 14.67951599 303.12025452 -1.98048401 303.12025452 C-3.62805223 301.4726863 -3.10592165 299.56938257 -3.10632515 297.29917145 C-3.1089329 296.24929503 -3.11154064 295.19941861 -3.11422741 294.11772776 C-3.11199669 292.95014728 -3.10976597 291.7825668 -3.10746765 290.5796051 C-3.10902764 289.35030698 -3.11058763 288.12100886 -3.1121949 286.85445929 C-3.1155083 283.42675636 -3.11429563 279.99910773 -3.11120868 276.57140803 C-3.10895652 272.88084517 -3.11243327 269.19028724 -3.1151886 265.49972534 C-3.11964728 258.2637724 -3.1186694 251.02782979 -3.11577596 243.79187644 C-3.11352231 237.91376067 -3.11320924 232.03564781 -3.11429977 226.15753174 C-3.11445301 225.32257222 -3.11460624 224.4876127 -3.11476412 223.62735137 C-3.11508383 221.93142164 -3.11540804 220.2354919 -3.11573671 218.53956217 C-3.11859179 202.61749849 -3.11530404 186.69544057 -3.10993634 170.77337784 C-3.10546828 157.09619453 -3.1062442 143.4190197 -3.1108551 129.74183655 C-3.11620038 113.87875367 -3.11831709 98.01567584 -3.11524284 82.15259218 C-3.11492427 80.46272055 -3.1146099 78.77284892 -3.11429977 77.08297729 C-3.1141455 76.2514158 -3.11399122 75.41985431 -3.11383227 74.56309399 C-3.11296698 68.68852546 -3.11443026 62.81396012 -3.11677933 56.93939209 C-3.11957701 49.78530249 -3.11883975 42.63122387 -3.11349858 35.47713554 C-3.11086113 31.82341779 -3.10985724 28.16971838 -3.11314774 24.51600075 C-3.11665291 20.56429132 -3.11248241 16.61261226 -3.10746765 12.66090393 C-3.10969837 11.49332345 -3.11192909 10.32574298 -3.11422741 9.12278128 C-3.11161967 8.07290486 -3.10901192 7.02302844 -3.10632515 5.94133759 C-3.1061628 5.02789282 -3.10600044 4.11444806 -3.10583317 3.17332315 C-2.9389413 0.43983482 -2.73471516 0.16605125 0 0 Z " fill="#20D584" transform="translate(317.98048400878906,114.87974548339844)"/>
<path d="M0 0 C0.86445236 0.00202423 1.72890472 0.00404846 2.61955261 0.00613403 C3.52517441 0.00438171 4.4307962 0.00262939 5.36386108 0.00082397 C8.37293892 -0.00359597 11.3819585 -0.00065605 14.39103699 0.00271606 C16.47229524 0.00204307 18.55355342 0.00107308 20.6348114 -0.00018311 C25.00294236 -0.00166027 29.37105292 0.00049508 33.73918152 0.00515747 C39.35193252 0.01085477 44.96463571 0.00757586 50.57738495 0.00158501 C54.87690087 -0.0020201 59.17640537 -0.00088225 63.47592163 0.0017128 C65.5460816 0.00238221 67.61624259 0.00155316 69.68640137 -0.00076675 C72.57430285 -0.00329245 75.46212576 0.00054614 78.35002136 0.00613403 C79.21447372 0.0041098 80.07892609 0.00208557 80.96957397 0 C86.87052462 0.02126619 86.87052462 0.02126619 87.98478699 1.13552856 C88.0827401 2.51162738 88.11276787 3.89266739 88.11418152 5.27224731 C88.11733368 6.14985718 88.12048584 7.02746704 88.12373352 7.93167114 C88.12069717 9.36289307 88.12069717 9.36289307 88.11759949 10.82302856 C88.11855621 11.79586792 88.11951294 12.76870728 88.12049866 13.77102661 C88.12118057 15.83230656 88.11932551 17.89358865 88.11515808 19.9548645 C88.10980999 23.12190545 88.11510271 26.28880456 88.12150574 29.45584106 C88.12084496 31.45323721 88.1195638 33.45063327 88.11759949 35.44802856 C88.11962372 36.40217651 88.12164795 37.35632446 88.12373352 38.33938599 C88.11900528 39.65580078 88.11900528 39.65580078 88.11418152 40.99880981 C88.11338593 41.77522827 88.11259033 42.55164673 88.11177063 43.35159302 C87.98478699 45.13552856 87.98478699 45.13552856 86.98478699 46.13552856 C85.60318584 46.22831186 84.21690661 46.25299899 82.8321991 46.24905396 C81.93899963 46.24893311 81.04580017 46.24881226 80.12553406 46.24868774 C79.18061096 46.24357178 78.23568787 46.23845581 77.26213074 46.23318481 C76.39817688 46.23217773 75.53422302 46.23117065 74.64408875 46.23013306 C71.40347474 46.22488406 68.16287959 46.21092293 64.92228699 46.19802856 C57.68291199 46.17740356 50.44353699 46.15677856 42.98478699 46.13552856 C42.98478699 73.52552856 42.98478699 100.91552856 42.98478699 129.13552856 C55.19478699 129.13552856 67.40478699 129.13552856 79.98478699 129.13552856 C81.51318359 130.66392517 81.11193897 132.03465838 81.11418152 134.1645813 C81.11733368 135.01894272 81.12048584 135.87330414 81.12373352 136.7535553 C81.12069717 138.14726097 81.12069717 138.14726097 81.11759949 139.56912231 C81.11855621 140.51739395 81.11951294 141.46566559 81.12049866 142.44267273 C81.12118062 144.45267808 81.11932522 146.46268562 81.11515808 148.47268677 C81.10981594 151.55631446 81.11509949 154.6397961 81.12150574 157.72341919 C81.12084484 159.67198722 81.11956345 161.62055516 81.11759949 163.56912231 C81.11962372 164.4962352 81.12164795 165.42334808 81.12373352 166.3785553 C81.11900528 167.66482567 81.11900528 167.66482567 81.11418152 168.9770813 C81.11338593 169.73351425 81.11259033 170.4899472 81.11177063 171.26930237 C80.98478699 173.13552856 80.98478699 173.13552856 79.98478699 175.13552856 C67.77478699 175.13552856 55.56478699 175.13552856 42.98478699 175.13552856 C42.98478699 202.19552856 42.98478699 229.25552856 42.98478699 257.13552856 C58.36249002 257.0959396 58.36249002 257.0959396 73.74015808 257.04544067 C75.66284632 257.04252105 77.58553518 257.0399726 79.50822449 257.03787231 C80.51280701 257.03275635 81.51738953 257.02764038 82.55241394 257.02236938 C83.98339417 257.02218811 83.98339417 257.02218811 85.44328308 257.02200317 C86.68904617 257.01867226 86.68904617 257.01867226 87.9599762 257.01527405 C89.98478699 257.13552856 89.98478699 257.13552856 91.98478699 258.13552856 C92.01005823 264.38348531 92.02762042 270.63142898 92.03971863 276.87942505 C92.04475997 279.0067087 92.0515929 281.13398888 92.06022644 283.26126099 C92.07230078 286.31180682 92.07801713 289.36230702 92.08244324 292.41287231 C92.08760452 293.37015732 92.09276581 294.32744232 92.0980835 295.31373596 C92.09815903 296.19457352 92.09823456 297.07541107 92.09831238 297.98294067 C92.10053299 298.76237534 92.1027536 299.54181 92.1050415 300.34486389 C91.98478699 302.13552856 91.98478699 302.13552856 90.98478699 303.13552856 C87.94076277 303.23083837 84.9194699 303.26104495 81.87516785 303.24905396 C80.91917191 303.24919998 79.96317596 303.24934601 78.97821045 303.24949646 C75.80199454 303.24879692 72.62583647 303.24100259 69.44963074 303.23318481 C67.25387606 303.23132078 65.05812097 303.22989681 62.86236572 303.22889709 C57.07058065 303.22507075 51.27882049 303.21523947 45.48704529 303.20419312 C39.58199907 303.1939815 33.67694885 303.18940001 27.77189636 303.18435669 C16.17618227 303.17361731 4.5804867 303.1565395 -7.01521301 303.13552856 C-7.03807793 264.6795366 -7.0557105 226.22354565 -7.06627834 187.76754827 C-7.06752912 183.23241213 -7.06882344 178.69727601 -7.07014465 174.16213989 C-7.07040696 173.25923654 -7.07066927 172.35633319 -7.07093953 171.42606913 C-7.07529654 156.78652673 -7.08318425 142.14698823 -7.09236581 127.50744814 C-7.10170151 112.49748885 -7.10726844 97.4875316 -7.10930151 82.47756952 C-7.11067691 73.2079155 -7.11502843 63.93827252 -7.12312948 54.66862189 C-7.12839591 48.32099768 -7.13001755 41.97337923 -7.12871439 35.62575299 C-7.12807085 31.95786389 -7.12909034 28.28999416 -7.13441849 24.62210846 C-7.14013953 20.65502198 -7.13821416 16.68796115 -7.13546753 12.72087097 C-7.13838037 11.54871743 -7.14129321 10.37656388 -7.14429432 9.16889054 C-7.14230327 8.11491402 -7.14031222 7.06093751 -7.13826084 5.97502232 C-7.13864056 5.05799772 -7.13902028 4.14097312 -7.13941151 3.1961599 C-6.87399313 -1.20751206 -3.67347278 0.01323868 0 0 Z " fill="#21D784" transform="translate(209.0152130126953,114.86447143554688)"/>
<path d="M0 0 C0.77338431 0.00092179 1.54676863 0.00184359 2.34358883 0.00279331 C3.22844967 0.00141865 4.11331051 0.00004398 5.02498531 -0.00137234 C6.00321758 0.00222294 6.98144985 0.00581821 7.98932552 0.00952244 C9.01359646 0.00937641 10.03786739 0.00923038 11.09317684 0.00907993 C14.49665055 0.00977955 17.9000703 0.0175742 21.30353451 0.02539158 C23.65623094 0.02725559 26.00892776 0.02867957 28.36162472 0.0296793 C34.56769531 0.03350584 40.77374266 0.04333728 46.97980404 0.05438328 C53.30711204 0.06459448 59.63442378 0.06917629 65.96173763 0.0742197 C78.38687807 0.08495942 90.81200124 0.10203747 103.23712826 0.12304783 C104.4046231 28.79090864 102.58880181 54.29137918 94.92236233 81.93537617 C93.73716356 86.25973846 92.61854368 90.60133363 91.49347591 94.94165134 C89.66116087 101.98589781 87.79881452 109.02142036 85.91388607 116.05175877 C83.41724668 125.37865206 81.02938458 134.7301478 78.69806576 144.09961033 C78.52331282 144.80179943 78.34855988 145.50398853 78.16851139 146.22745609 C77.3124292 149.67015255 76.45848425 153.11337374 75.60568905 156.55688572 C74.62437294 160.51629493 73.6333569 164.47323404 72.64020443 168.42968845 C68.43779246 185.18430071 64.34479477 201.96192214 60.41632748 218.78295994 C58.37890522 227.48451323 56.22580765 236.14137557 53.88320065 244.76655674 C52.77939516 248.8697195 51.84950246 252.91019836 51.23712826 257.12304783 C51.87383953 257.12082722 52.5105508 257.11860661 53.16655636 257.1163187 C59.76828102 257.09426743 66.3699953 257.07914189 72.9717474 257.06811619 C75.43854859 257.06307427 77.90534678 257.05624092 80.37213802 257.04760838 C83.90917355 257.03553658 87.44616971 257.02981827 90.98322201 257.02539158 C92.09362347 257.02023029 93.20402493 257.01506901 94.34807491 257.00975132 C95.87954914 257.00963802 95.87954914 257.00963802 97.44196224 257.00952244 C98.34575115 257.00730183 99.24954006 257.00508121 100.18071651 257.00279331 C102.23712826 257.12304783 102.23712826 257.12304783 103.23712826 258.12304783 C103.23712826 272.97304783 103.23712826 287.82304783 103.23712826 303.12304783 C68.25712826 303.12304783 33.27712826 303.12304783 -2.76287174 303.12304783 C-2.76287174 253.74353514 -2.76287174 253.74353514 3.30988216 235.11523533 C4.85065111 230.14323317 5.93344461 225.07902132 7.04962826 219.99804783 C9.48191332 209.25074172 12.0394588 198.53580598 14.64224911 187.82867527 C15.07240911 186.05823168 15.50150839 184.28752996 15.92941952 182.51654148 C18.29089458 172.74924255 20.77990798 163.03802675 23.50879574 153.36673069 C25.21665547 147.28384846 26.68610275 141.16738286 28.04962826 134.99804783 C30.32364406 124.94517889 32.73078989 114.93246226 35.23712826 104.93554783 C35.49237774 103.9167252 35.49237774 103.9167252 35.75278378 102.87732029 C38.17361613 93.22849409 40.67348764 83.60173215 43.21832943 73.98486423 C44.99740047 67.20126699 46.58135589 60.38685733 48.0330267 53.52587986 C49.14269287 48.31191861 49.14269287 48.31191861 50.23712826 46.12304783 C49.26326923 46.12637875 49.26326923 46.12637875 48.26973629 46.12977695 C41.53825077 46.15182785 34.80677545 46.1669536 28.07526302 46.17797947 C25.55995931 46.18302146 23.04465854 46.18985485 20.52936459 46.19848728 C16.92283051 46.21055877 13.31633503 46.21627732 9.70978451 46.22070408 C8.01137165 46.22844601 8.01137165 46.22844601 6.27864742 46.23634434 C5.23764385 46.23641987 4.19664028 46.2364954 3.12409115 46.23657322 C1.74176044 46.23990414 1.74176044 46.23990414 0.33150387 46.24330235 C-1.76287174 46.12304783 -1.76287174 46.12304783 -2.76287174 45.12304783 C-2.86082486 43.74694901 -2.89085262 42.36590901 -2.89226627 40.98632908 C-2.89541843 40.10871922 -2.89857059 39.23110935 -2.90181828 38.32690525 C-2.89979404 37.3727573 -2.89776981 36.41860935 -2.89568424 35.43554783 C-2.89664097 34.46270847 -2.89759769 33.48986912 -2.89858341 32.48754978 C-2.89926533 30.42626983 -2.89741027 28.36498774 -2.89324284 26.30371189 C-2.88789475 23.13667095 -2.89318746 19.96977183 -2.89959049 16.80273533 C-2.89892971 14.80533918 -2.89764855 12.80794312 -2.89568424 10.81054783 C-2.89770847 9.85639988 -2.8997327 8.90225193 -2.90181828 7.91919041 C-2.89866611 7.04158054 -2.89551395 6.16397068 -2.89226627 5.25976658 C-2.89147068 4.48334812 -2.89067509 3.70692966 -2.88985538 2.90698338 C-2.71784794 0.49052882 -2.41839375 0.16880303 0 0 Z " fill="#20D684" transform="translate(83.76287174224854,114.87695217132568)"/>
</svg>
