<?xml version="1.0" encoding="UTF-8"?>
<svg version="1.1" xmlns="http://www.w3.org/2000/svg" width="200" height="200">
<path d="M0 0 C1.3089624 -0.0087616 2.6179248 -0.01752319 3.96655273 -0.02655029 C7.52049481 -0.04912476 11.07370198 -0.04059958 14.62765503 -0.02465487 C18.3696268 -0.011881 22.11154104 -0.02376752 25.85351562 -0.03158569 C32.13422797 -0.0406492 38.41464511 -0.02878172 44.6953125 -0.00488281 C51.92781486 0.02232242 59.15961217 0.01350588 66.39209747 -0.01401484 C72.63287585 -0.03679971 78.87344359 -0.03986052 85.11425018 -0.02682149 C88.8279931 -0.01907812 92.54140603 -0.01784243 96.25512695 -0.03450394 C100.39966703 -0.05180384 104.54301653 -0.02774128 108.6875 0 C110.50205688 -0.01518173 110.50205688 -0.01518173 112.35327148 -0.03067017 C124.4622015 0.11863321 134.55198689 4.27553288 143.34375 12.64697266 C152.38472086 22.18333918 155.09788335 33.49512098 154.99072266 46.30322266 C154.99948425 47.61218506 155.00824585 48.92114746 155.01727295 50.26977539 C155.03984741 53.82371746 155.03132223 57.37692464 155.01537752 60.93087769 C155.00260366 64.67284945 155.01449018 68.4147637 155.02230835 72.15673828 C155.03137185 78.43745063 155.01950438 84.71786776 154.99560547 90.99853516 C154.96840024 98.23103752 154.97721677 105.46283482 155.0047375 112.69532013 C155.02752237 118.93609851 155.03058318 125.17666625 155.01754415 131.41747284 C155.00980078 135.13121575 155.00856509 138.84462869 155.02522659 142.55834961 C155.0425265 146.70288969 155.01846394 150.84623919 154.99072266 154.99072266 C155.00084381 156.20042725 155.01096497 157.41013184 155.02139282 158.65649414 C154.87208945 170.76542416 150.71518977 180.85520955 142.34375 189.64697266 C132.80738348 198.68794352 121.49560168 201.401106 108.6875 201.29394531 C107.3785376 201.30270691 106.0695752 201.31146851 104.72094727 201.32049561 C101.16700519 201.34307007 97.61379802 201.33454489 94.05984497 201.31860018 C90.3178732 201.30582631 86.57595896 201.31771283 82.83398438 201.32553101 C76.55327203 201.33459451 70.27285489 201.32272703 63.9921875 201.29882812 C56.75968514 201.2716229 49.52788783 201.28043943 42.29540253 201.30796015 C36.05462415 201.33074503 29.81405641 201.33380583 23.57324982 201.32076681 C19.8595069 201.31302343 16.14609397 201.31178774 12.43237305 201.32844925 C8.28783297 201.34574915 4.14448347 201.32168659 0 201.29394531 C-1.20970459 201.30406647 -2.41940918 201.31418762 -3.66577148 201.32461548 C-15.7747015 201.17531211 -25.86448689 197.01841243 -34.65625 188.64697266 C-43.69722086 179.11060613 -46.41038335 167.79882433 -46.30322266 154.99072266 C-46.31198425 153.68176025 -46.32074585 152.37279785 -46.32977295 151.02416992 C-46.35234741 147.47022785 -46.34382223 143.91702068 -46.32787752 140.36306763 C-46.31510366 136.62109586 -46.32699018 132.87918161 -46.33480835 129.13720703 C-46.34387185 122.85649468 -46.33200438 116.57607755 -46.30810547 110.29541016 C-46.28090024 103.06290779 -46.28971677 95.83111049 -46.3172375 88.59862518 C-46.34002237 82.3578468 -46.34308318 76.11727907 -46.33004415 69.87647247 C-46.32230078 66.16272956 -46.32106509 62.44931662 -46.33772659 58.7355957 C-46.3550265 54.59105563 -46.33096394 50.44770612 -46.30322266 46.30322266 C-46.31334381 45.09351807 -46.32346497 43.88381348 -46.33389282 42.63745117 C-46.18458945 30.52852115 -42.02768977 20.43873576 -33.65625 11.64697266 C-24.11988348 2.6060018 -12.80810168 -0.10716069 0 0 Z " fill="#242524" transform="translate(45.65625,-0.64697265625)"/>
<path d="M0 0 C5.94 0 11.88 0 18 0 C20.25083518 6.75250555 20.25083518 6.75250555 20.96142578 10.09008789 C21.12144073 10.83428482 21.28145569 11.57848175 21.44631958 12.3452301 C21.61098724 13.12978073 21.77565491 13.91433136 21.9453125 14.72265625 C22.12005096 15.5457579 22.29478943 16.36885956 22.474823 17.21690369 C22.84128218 18.9486692 23.2059254 20.68081988 23.56884766 22.41333008 C24.12422991 25.05883178 24.68873796 27.70227699 25.25390625 30.34570312 C25.60992988 32.03373723 25.96541696 33.72188461 26.3203125 35.41015625 C26.48902863 36.19673111 26.65774475 36.98330597 26.83157349 37.79371643 C27.61975492 41.59356892 28.20887888 45.09396492 28 49 C28.99 49 29.98 49 31 49 C31 32.83 31 16.66 31 0 C37.6 0 44.2 0 51 0 C51 37.62 51 75.24 51 114 C45.06 114 39.12 114 33 114 C31.7811063 109.73387204 30.62227341 105.56998105 29.6328125 101.26171875 C29.38869629 100.20218994 29.14458008 99.14266113 28.89306641 98.05102539 C28.63960449 96.94106201 28.38614258 95.83109863 28.125 94.6875 C27.86251465 93.5420874 27.6000293 92.3966748 27.32958984 91.21655273 C26.55069552 87.81156975 25.77511628 84.4058447 25 81 C24.77957031 80.03674805 24.55914062 79.07349609 24.33203125 78.08105469 C23.75927462 75.57570047 23.19105998 73.06937453 22.625 70.5625 C22.45758301 69.8305542 22.29016602 69.0986084 22.11767578 68.34448242 C21.47938877 65.49074175 21 62.93545681 21 60 C20.01 60 19.02 60 18 60 C18 77.82 18 95.64 18 114 C12.06 114 6.12 114 0 114 C0 76.38 0 38.76 0 0 Z " fill="#20D684" transform="translate(119,43)"/>
<path d="M0 0 C11.88 0 23.76 0 36 0 C36 5.61 36 11.22 36 17 C35 18 35 18 31.40234375 18.09765625 C29.91402745 18.09191272 28.42573704 18.07889891 26.9375 18.0625 C24.318125 18.041875 21.69875 18.02125 19 18 C19 28.23 19 38.46 19 49 C23.62 49 28.24 49 33 49 C33 54.61 33 60.22 33 66 C28.38 66 23.76 66 19 66 C19 76.23 19 86.46 19 97 C24.94 97 30.88 97 37 97 C37 102.61 37 108.22 37 114 C24.79 114 12.58 114 0 114 C0 76.38 0 38.76 0 0 Z " fill="#21D884" transform="translate(76,43)"/>
<path d="M0 0 C13.53 0 27.06 0 41 0 C41 19.51949483 41 19.51949483 38.55078125 27.94921875 C38.29628708 28.89400589 38.04179291 29.83879303 37.77958679 30.81221008 C36.97714765 33.77653788 36.14640875 36.73188949 35.3125 39.6875 C34.23841512 43.58515324 33.17571688 47.4858765 32.11328125 51.38671875 C31.85086136 52.34209534 31.58844147 53.29747192 31.31806946 54.28179932 C28.75482816 63.69764992 26.61198905 73.19479559 24.51196289 82.72262573 C23.43663344 87.50603417 22.21924902 92.25134593 21 97 C27.27 97 33.54 97 40 97 C40 102.61 40 108.22 40 114 C26.8 114 13.6 114 0 114 C0 94.98427673 0 94.98427673 2.125 88.5625 C2.5969546 87.04345924 3.0627354 85.52249123 3.5234375 84 C3.76803711 83.19820313 4.01263672 82.39640625 4.26464844 81.5703125 C5.63391369 76.78424856 6.66878488 71.92013856 7.75 67.0625 C11.45350563 50.61288743 15.74185327 34.3129402 20 18 C19.14450562 18.00785522 19.14450562 18.00785522 18.27172852 18.01586914 C15.70199677 18.03658221 13.13228253 18.0496419 10.5625 18.0625 C9.66466797 18.07087891 8.76683594 18.07925781 7.84179688 18.08789062 C6.56079102 18.09272461 6.56079102 18.09272461 5.25390625 18.09765625 C4.46314697 18.10289307 3.6723877 18.10812988 2.85766602 18.11352539 C1 18 1 18 0 17 C0 11.39 0 5.78 0 0 Z " fill="#21D684" transform="translate(30,43)"/>
<path d="M0 0 C13.53 0 27.06 0 41 0 C41 19.55574324 41 19.55574324 38.5 27.5625 C38.26152344 28.39201172 38.02304688 29.22152344 37.77734375 30.07617188 C37.20494113 32.05668493 36.60567094 34.02940633 36 36 C35.67 36 35.34 36 35 36 C35.3629506 31.33895014 35.75336497 26.89405198 37 22.375 C38.52062509 15.72226523 38.57431136 8.81101826 39 2 C27.12 2.33 15.24 2.66 3 3 C2.67 7.29 2.34 11.58 2 16 C7.94 16 13.88 16 20 16 C20 16.33 20 16.66 20 17 C13.4 17 6.8 17 0 17 C0 11.39 0 5.78 0 0 Z " fill="#1AAD75" transform="translate(30,43)"/>
<path d="M0 0 C11.88 0 23.76 0 36 0 C36 5.61 36 11.22 36 17 C35 18 35 18 31.40234375 18.09765625 C29.91402745 18.09191272 28.42573704 18.07889891 26.9375 18.0625 C24.318125 18.041875 21.69875 18.02125 19 18 C19 28.23 19 38.46 19 49 C18.67 49 18.34 49 18 49 C17.97534608 44.46102295 17.95716211 39.92208457 17.94506836 35.38305664 C17.9400286 33.83780234 17.9331968 32.29255284 17.92456055 30.74731445 C17.91247924 28.53074971 17.90676827 26.31424782 17.90234375 24.09765625 C17.89718246 23.4028566 17.89202118 22.70805695 17.88670349 21.99220276 C17.88650723 20.3277067 17.93810871 18.66334501 18 17 C19 16 19 16 22.37890625 15.90234375 C23.77347077 15.90901631 25.16801743 15.92097468 26.5625 15.9375 C27.27341797 15.94201172 27.98433594 15.94652344 28.71679688 15.95117188 C30.47790013 15.96299136 32.23896036 15.98092737 34 16 C34 11.38 34 6.76 34 2 C18.16 2.495 18.16 2.495 2 3 C1.67 4.98 1.34 6.96 1 9 C0.67 9 0.34 9 0 9 C0 6.03 0 3.06 0 0 Z " fill="#1BA56F" transform="translate(76,43)"/>
<path d="M0 0 C5.94 0 11.88 0 18 0 C18.33 1.65 18.66 3.3 19 5 C18.67 4.01 18.34 3.02 18 2 C15.37335097 2.0867572 12.75021918 2.19357981 10.125 2.3125 C9.00544922 2.34633789 9.00544922 2.34633789 7.86328125 2.38085938 C5.900396 2.47811945 3.94671678 2.73042294 2 3 C1.34 3.99 0.68 4.98 0 6 C0 4.02 0 2.04 0 0 Z " fill="#19AC75" transform="translate(119,43)"/>
<path d="M0 0 C0.33 0 0.66 0 1 0 C1 3.96 1 7.92 1 12 C0.34 12 -0.32 12 -1 12 C-1.22162329 10.37675914 -1.42689803 8.751279 -1.625 7.125 C-1.74101562 6.22007813 -1.85703125 5.31515625 -1.9765625 4.3828125 C-1.98429688 3.59648438 -1.99203125 2.81015625 -2 2 C-1.34 1.34 -0.68 0.68 0 0 Z " fill="#1E1A1C" transform="translate(148,79)"/>
</svg>
