<?xml version="1.0" encoding="UTF-8"?>
<svg version="1.1" xmlns="http://www.w3.org/2000/svg" width="67" height="67">
<path d="M0 0 C1.49747017 -0.02893593 1.49747017 -0.02893593 3.02519226 -0.05845642 C7.60285897 -0.11618448 12.18036702 -0.16549369 16.75830078 -0.19628906 C19.17055589 -0.21785746 21.58273298 -0.25194603 23.99462891 -0.29882812 C27.47439499 -0.36586139 30.95254041 -0.39329714 34.43286133 -0.41235352 C35.50602097 -0.44018417 36.5791806 -0.46801483 37.68486023 -0.49668884 C43.94950498 -0.47954878 47.47597825 0.24385562 51.98725891 4.72276306 C54.26205154 7.50458865 54.34770188 9.48871718 54.41113281 13.00634766 C54.43042343 14.0046611 54.44971405 15.00297455 54.46958923 16.03153992 C54.52731729 20.60920663 54.57662651 25.18671467 54.60742188 29.76464844 C54.62899027 32.17690354 54.66307884 34.58908064 54.70996094 37.00097656 C54.7769942 40.48074265 54.80442996 43.95888807 54.82348633 47.43920898 C54.85131699 48.51236862 54.87914764 49.58552826 54.90782166 50.69120789 C54.8906816 56.95585264 54.16727719 60.48232591 49.68836975 64.99360657 C46.90654417 67.2683992 44.92241564 67.35404954 41.40478516 67.41748047 C40.40647171 67.43677109 39.40815826 67.45606171 38.3795929 67.47593689 C33.80192619 67.53366495 29.22441814 67.58297416 24.64648438 67.61376953 C22.23422927 67.63533793 19.82205218 67.6694265 17.41015625 67.71630859 C13.93039017 67.78334186 10.45224475 67.81077761 6.97192383 67.82983398 C5.89876419 67.85766464 4.82560455 67.8854953 3.71992493 67.91416931 C-2.54471983 67.89702925 -6.07119309 67.17362485 -10.58247375 62.69471741 C-12.85726639 59.91289182 -12.94291672 57.92876329 -13.00634766 54.41113281 C-13.02563828 53.41281937 -13.04492889 52.41450592 -13.06480408 51.38594055 C-13.12253213 46.80827384 -13.17184135 42.2307658 -13.20263672 37.65283203 C-13.22420512 35.24057693 -13.25829369 32.82839983 -13.30517578 30.41650391 C-13.37220905 26.93673782 -13.3996448 23.4585924 -13.41870117 19.97827148 C-13.44653183 18.90511185 -13.47436249 17.83195221 -13.5030365 16.72627258 C-13.48589644 10.46162783 -12.76249204 6.93515456 -8.28358459 2.4238739 C-5.50175901 0.14908127 -3.51763048 0.06343093 0 0 Z " fill="#252525" transform="translate(12.797607421875,-0.208740234375)"/>
<path d="M0 0 C1.98 0 3.96 0 6 0 C6.99 4.29 7.98 8.58 9 13 C9.33 8.71 9.66 4.42 10 0 C12.31 0 14.62 0 17 0 C17 12.87 17 25.74 17 39 C15.02 39 13.04 39 11 39 C10.51933465 37.10454608 10.04053257 35.20861961 9.5625 33.3125 C9.29566406 32.25675781 9.02882813 31.20101562 8.75390625 30.11328125 C8.10270103 27.42410737 7.54263334 24.71316669 7 22 C6.67 27.61 6.34 33.22 6 39 C4.02 39 2.04 39 0 39 C0 26.13 0 13.26 0 0 Z " fill="#20D081" transform="translate(40,14)"/>
<path d="M0 0 C3.96 0 7.92 0 12 0 C12 1.98 12 3.96 12 6 C10.35 6 8.7 6 7 6 C7 9.63 7 13.26 7 17 C8.32 17 9.64 17 11 17 C11 18.98 11 20.96 11 23 C9.68 23 8.36 23 7 23 C7 26.3 7 29.6 7 33 C8.98 33 10.96 33 13 33 C13 34.98 13 36.96 13 39 C8.71 39 4.42 39 0 39 C0 26.13 0 13.26 0 0 Z " fill="#21C97C" transform="translate(25,14)"/>
<path d="M0 0 C4.62 0 9.24 0 14 0 C14 5.48052434 13.57431414 9.66004818 12.1875 14.8125 C12.00735352 15.50666016 11.82720703 16.20082031 11.64160156 16.91601562 C10.22513625 22.31613296 8.68859677 27.67836171 7 33 C9.31 33 11.62 33 14 33 C14 34.98 14 36.96 14 39 C9.38 39 4.76 39 0 39 C-0.18339008 33.32755496 0.33179111 28.5264492 1.8125 23.0625 C2.08271973 22.02416016 2.08271973 22.02416016 2.35839844 20.96484375 C3.69809466 15.90008069 5.23751978 10.93494462 7 6 C4.69 6 2.38 6 0 6 C0 4.02 0 2.04 0 0 Z " fill="#20CB7E" transform="translate(10,14)"/>
<path d="M0 0 C0.33 0 0.66 0 1 0 C1 12.54 1 25.08 1 38 C0.67 38 0.34 38 0 38 C-0.33 30.74 -0.66 23.48 -1 16 C-1.33 17.65 -1.66 19.3 -2 21 C-2.33 21 -2.66 21 -3 21 C-3 19.35 -3 17.7 -3 16 C-4.32 16 -5.64 16 -7 16 C-7 12.37 -7 8.74 -7 5 C-4.69 5 -2.38 5 0 5 C0 3.35 0 1.7 0 0 Z " fill="#21372D" transform="translate(39,15)"/>
<path d="M0 0 C0.66 0.33 1.32 0.66 2 1 C2 8.59 2 16.18 2 24 C1.67 24 1.34 24 1 24 C1 22.02 1 20.04 1 18 C-1.31 18 -3.62 18 -6 18 C-4.18181818 4.18181818 -4.18181818 4.18181818 0 0 Z " fill="#191A19" transform="translate(23,29)"/>
<path d="M0 0 C0.33 0 0.66 0 1 0 C1 7.59 1 15.18 1 23 C0.67 23 0.34 23 0 23 C0 21.02 0 19.04 0 17 C-1.98 17 -3.96 17 -6 17 C-6 13.7 -6 10.4 -6 7 C-4.68 6.67 -3.36 6.34 -2 6 C-0.6954344 3.00384054 -0.6954344 3.00384054 0 0 Z " fill="#181516" transform="translate(38,30)"/>
<path d="M0 0 C0.99 0.495 0.99 0.495 2 1 C3.43508565 7.04124766 3.13327249 12.22761562 1 18 C0.67 18 0.34 18 0 18 C0 12.06 0 6.12 0 0 Z " fill="#182820" transform="translate(46,35)"/>
</svg>
